Coordinates
version=1
nRows=49
nColumns=12
inDegrees=yes

Units are S.I. units (second, meters, Newtons, ...)
Angles are in degrees

endheader
time	SC_y	SC_z	SC_x	AC_y	AC_z	AC_x	GH_y	GH_z	GH_yy	EL_x	PS_y
       0.0              -46.23          8.417          38.29          47.38         -14.68          -16.8          160.1          46.79          46.12          55.28          20.01
   0.01715              -46.23          8.417          38.29          47.39         -14.68          -16.8          160.1           46.8          46.13          55.29          20.01
    0.0343              -46.23          8.416          38.28          47.39         -14.68         -16.79          160.0           46.8          46.15          55.29          20.02
   0.05144              -46.23          8.416          38.28          47.39         -14.67         -16.79          160.0           46.8          46.17           55.3          20.02
   0.06859              -46.23          8.416          38.27           47.4         -14.67         -16.79          159.9           46.8          46.19           55.3          20.02
   0.08574              -46.24          8.416          38.27           47.4         -14.67         -16.78          159.9          46.81          46.21          55.31          20.02
    0.1029              -46.24          8.416          38.27           47.4         -14.66         -16.78          159.8          46.81          46.24          55.31          20.02
      0.12              -46.24          8.415          38.26          47.41         -14.66         -16.78          159.8          46.81          46.26          55.32          20.02
    0.1372              -46.24          8.415          38.26          47.41         -14.66         -16.77          159.7          46.82          46.29          55.32          20.02
    0.1543              -46.24          8.415          38.25          47.42         -14.65         -16.77          159.7          46.82          46.31          55.33          20.02
    0.1715              -46.24          8.414          38.24          47.42         -14.65         -16.76          159.6          46.82          46.35          55.34          20.02
    0.1886              -46.24          8.414          38.24          47.43         -14.64         -16.76          159.5          46.83          46.38          55.35          20.03
    0.2058              -46.24          8.413          38.23          47.43         -14.64         -16.75          159.4          46.83          46.41          55.36          20.03
    0.2229              -46.25          8.413          38.22          47.44         -14.63         -16.74          159.3          46.84          46.45          55.36          20.03
    0.2401              -46.25          8.413          38.21          47.45         -14.63         -16.74          159.3          46.84          46.49          55.38          20.03
    0.2572              -46.25          8.412           38.2          47.46         -14.62         -16.73          159.2          46.85          46.54          55.39          20.03
    0.2744              -46.25          8.411          38.19          47.46         -14.61         -16.72          159.0          46.85          46.59           55.4          20.04
    0.2915              -46.25          8.411          38.18          47.47          -14.6         -16.71          158.9          46.86          46.64          55.41          20.04
    0.3087              -46.26           8.41          38.17          47.48          -14.6          -16.7          158.8          46.86           46.7          55.43          20.04
    0.3258              -46.26           8.41          38.16           47.5         -14.59         -16.69          158.6          46.87          46.76          55.44          20.05
     0.343              -46.26          8.409          38.14          47.51         -14.58         -16.68          158.5          46.88          46.83          55.46          20.05
    0.3601              -46.26          8.408          38.13          47.52         -14.57         -16.67          158.3          46.89          46.91          55.48          20.05
    0.3773              -46.27          8.407          38.11          47.54         -14.55         -16.65          158.1           46.9          46.99           55.5          20.06
    0.3944              -46.27          8.406          38.09          47.55         -14.54         -16.64          157.9          46.91          47.09          55.52          20.06
    0.4116              -46.28          8.405          38.07          47.57         -14.53         -16.62          157.7          46.92          47.19          55.55          20.07
    0.4287              -46.28          8.403          38.04          47.59         -14.51          -16.6          157.4          46.94          47.31          55.58          20.07
    0.4459              -46.29          8.402          38.02          47.61         -14.49         -16.58          157.1          46.95          47.44          55.61          20.08
     0.463              -46.29            8.4          37.99          47.64         -14.47         -16.55          156.8          46.97          47.59          55.64          20.09
    0.4801               -46.3          8.398          37.95          47.67         -14.44         -16.52          156.4          46.99          47.75          55.69           20.1
    0.4973              -46.31          8.396          37.91           47.7         -14.42         -16.49          156.0          47.02          47.94          55.73          20.11
    0.5144              -46.31          8.394          37.87          47.74         -14.39         -16.45          155.5          47.04          48.15          55.78          20.12
    0.5316              -46.32          8.391          37.82          47.78         -14.35         -16.41          155.0          47.07           48.4          55.85          20.13
    0.5487              -46.34          8.388          37.76          47.83         -14.31         -16.36          154.3          47.11          48.69          55.92          20.14
    0.5659              -46.35          8.384          37.69          47.89         -14.26         -16.31          153.6          47.15          49.02           56.0          20.16
     0.583              -46.37          8.379          37.61          47.95          -14.2         -16.24          152.7          47.19           49.4          56.09          20.18
    0.6002              -46.38          8.374          37.51          48.03         -14.14         -16.17          151.7          47.25          49.86          56.21           20.2
    0.6173              -46.41          8.368           37.4          48.13         -14.06         -16.07          150.5          47.31           50.4          56.34          20.23
    0.6345              -46.43          8.361          37.27          48.24         -13.97         -15.96          149.0          47.39          51.05           56.5          20.26
    0.6516              -46.46          8.352           37.1          48.38         -13.85         -15.83          147.2          47.49          51.84          56.69           20.3
    0.6688               -46.5          8.341           36.9          48.55         -13.71         -15.67          145.1           47.6           52.8          56.93          20.35
    0.6859              -46.55          8.327          36.66          48.75         -13.54         -15.46          142.4          47.75          53.99          57.22          20.41
    0.7031              -46.61           8.31          36.35          49.01         -13.33         -15.21          139.1          47.93          55.47          57.59          20.49
    0.7202              -46.69          8.289          35.97          49.33         -13.06          -14.9          134.9          48.15          57.33          58.05          20.58
    0.7374              -46.78          8.262          35.48          49.75         -12.71         -14.49          129.6          48.44           59.7          58.63           20.7
    0.7545              -46.91          8.227          34.85          50.27         -12.27         -13.98          122.8          48.81          62.73          59.38          20.85
    0.7717              -47.06          8.183          34.04          50.95         -11.71         -13.32          114.1          49.28          66.63          60.34          21.05
    0.7888              -47.27          8.126          33.01          51.82         -10.99         -12.48          102.9          49.88           71.6          61.57           21.3
     0.806              -47.52          8.055          31.72           52.9         -10.08         -11.41          88.88          50.63          77.85          63.11          21.62
    0.8231              -47.83          7.968          30.14          54.23          -8.98         -10.12          71.79          51.56          85.46          64.99           22.0
